<?xml version="1.0" encoding="UTF-8"?>
<!DOCTYPE svg PUBLIC "-//W3C//DTD SVG 1.1//EN" "http://www.w3.org/Graphics/SVG/1.1/DTD/svg11.dtd">
<svg version="1.1" xmlns="http://www.w3.org/2000/svg" xmlns:xlink="http://www.w3.org/1999/xlink" width="400" height="400"  xml:space="preserve" id="flowmodern">
    <!-- Generated by PaintCode (www.paintcodeapp.com) -->
    <g id="flowmodern-group" transform="" >
        <g id="flowmodern-group2" transform="translate(145, 77)" >
            <circle id="flowmodern-oval" stroke="rgb(19, 16, 55)" stroke-width="3" fill="none" cx="50" cy="50" r="40" />
            <text  fill="rgb(19, 16, 55)" font-family="HelveticaNeue-CondensedBold, 'Helvetica Neue', Helvetica, Arial, sans-serif" font-weight="bold" font-size="24" x="32.91" y="10" text-anchor="middle"><tspan x="50" y="58">you</tspan></text>
        </g>
        <g id="flowmodern-group3" transform="translate(240, 207)" >
            <rect id="flowmodern-rectangle" stroke="rgb(19, 16, 55)" stroke-width="3" fill="none" x="10" y="10" width="80" height="80" rx="15" />
            <text  fill="rgb(19, 16, 55)" font-family="HelveticaNeue-CondensedBold, 'Helvetica Neue', Helvetica, Arial, sans-serif" font-weight="bold" font-size="24" x="32.23" y="10" text-anchor="middle"><tspan x="50" y="58">app</tspan></text>
        </g>
        <g id="flowmodern-group4" clip-path="url(#flowmodern-rectangle2)">
            <clipPath id="flowmodern-rectangle2">
                <rect x="49" y="205" width="100" height="100" />
            </clipPath>
            <path id="flowmodern-polygon" stroke="rgb(19, 16, 55)" stroke-width="3" stroke-linecap="round" stroke-linejoin="round" stroke-miterlimit="10" fill="none" d="M 99,215 L 142.3,290 55.7,290 99,215 Z M 99,215" />
            
            <text  fill="rgb(19, 16, 55)" font-family="HelveticaNeue-CondensedBold, 'Helvetica Neue', Helvetica, Arial, sans-serif" font-weight="bold" font-size="24" x="77.9" y="226" text-anchor="middle"><tspan x="99" y="274">data</tspan></text>
        </g>
        <g id="flowmodern-group5" transform="translate(243.36, 186.64) rotate(51.47)" >
            <path id="flowmodern-bezier7" stroke="rgb(19, 16, 55)" stroke-width="3" stroke-linecap="round" stroke-linejoin="round" stroke-miterlimit="10" fill="none" d="M -21.5,-0.5 L 21.5,-0.5 M -22.5,-0.5 L -10.5,-12.5 M -22.5,-0.5 L -10.5,11.5 M 23,-0.5 L 11,-12.5 M 11.5,11.5 L 23,-0.5" />
        </g>
        <g id="flowmodern-group6" transform="translate(195.36, 255.64)" >
            <path id="flowmodern-bezier" stroke="rgb(19, 16, 55)" stroke-width="3" stroke-linecap="round" stroke-linejoin="round" stroke-miterlimit="10" fill="none" d="M -21.5,-0.5 L 21.5,-0.5 M -22.5,-0.5 L -10.5,-12.5 M -22.5,-0.5 L -10.5,11.5 M 23,-0.5 L 11,-12.5 M 11.5,11.5 L 23,-0.5" />
        </g>
        <g id="flowmodern-group7" transform="translate(141.36, 187.64) rotate(-53.52)" >
            <path id="flowmodern-bezier2" stroke="rgb(19, 16, 55)" stroke-width="3" stroke-linecap="round" stroke-linejoin="round" stroke-miterlimit="10" fill="none" d="M -21.5,-0.5 L 21.5,-0.5 M -22.5,-0.5 L -10.5,-12.5 M -22.5,-0.5 L -10.5,11.5 M 23,-0.5 L 11,-12.5 M 11.5,11.5 L 23,-0.5" />
        </g>
    </g>
</svg>
