<?xml version="1.0" encoding="UTF-8"?>
<!DOCTYPE svg PUBLIC "-//W3C//DTD SVG 1.1//EN" "http://www.w3.org/Graphics/SVG/1.1/DTD/svg11.dtd">
<svg version="1.1" xmlns="http://www.w3.org/2000/svg" xmlns:xlink="http://www.w3.org/1999/xlink" width="400" height="400"  xml:space="preserve" id="flowtraditional">
    <!-- Generated by PaintCode (www.paintcodeapp.com) -->
    <g id="flowtraditional-group" transform="" >
        <g id="flowtraditional-group2" transform="translate(38, 38)" >
            <circle id="flowtraditional-oval" stroke="rgb(19, 16, 55)" stroke-width="3" fill="none" cx="50" cy="50" r="40" />
            <text  fill="rgb(19, 16, 55)" font-family="HelveticaNeue-CondensedBold, 'Helvetica Neue', Helvetica, Arial, sans-serif" font-weight="bold" font-size="24" x="32.91" y="10" text-anchor="middle"><tspan x="50" y="58">you</tspan></text>
        </g>
        <g id="flowtraditional-group3" transform="translate(151, 159)" >
            <rect id="flowtraditional-rectangle" stroke="rgb(19, 16, 55)" stroke-width="3" fill="none" x="10" y="10" width="80" height="80" rx="15" />
            <text  fill="rgb(19, 16, 55)" font-family="HelveticaNeue-CondensedBold, 'Helvetica Neue', Helvetica, Arial, sans-serif" font-weight="bold" font-size="24" x="32.23" y="10" text-anchor="middle"><tspan x="50" y="58">app</tspan></text>
        </g>
        <g id="flowtraditional-group4" clip-path="url(#flowtraditional-rectangle2)">
            <clipPath id="flowtraditional-rectangle2">
                <rect x="261" y="261" width="100" height="100" />
            </clipPath>
            <path id="flowtraditional-polygon" stroke="rgb(19, 16, 55)" stroke-width="3" stroke-linecap="round" stroke-linejoin="round" stroke-miterlimit="10" fill="none" d="M 311,271 L 354.3,346 267.7,346 311,271 Z M 311,271" />
            
            <text  fill="rgb(19, 16, 55)" font-family="HelveticaNeue-CondensedBold, 'Helvetica Neue', Helvetica, Arial, sans-serif" font-weight="bold" font-size="24" x="289.9" y="282" text-anchor="middle"><tspan x="311" y="330">data</tspan></text>
        </g>
        <g id="flowtraditional-group5" transform="translate(137.36, 147.64) rotate(45)" >
            <path id="flowtraditional-bezier7" stroke="rgb(19, 16, 55)" stroke-width="3" stroke-linecap="round" stroke-linejoin="round" stroke-miterlimit="10" fill="none" d="M -21.5,-0.5 L 21.5,-0.5 M -22.5,-0.5 L -10.5,-12.5 M -22.5,-0.5 L -10.5,11.5 M 23,-0.5 L 11,-12.5 M 11.5,11.5 L 23,-0.5" />
        </g>
        <g id="flowtraditional-group6" transform="translate(263.36, 271.64) rotate(45)" >
            <path id="flowtraditional-bezier" stroke="rgb(19, 16, 55)" stroke-width="3" stroke-linecap="round" stroke-linejoin="round" stroke-miterlimit="10" fill="none" d="M -21.5,-0.5 L 21.5,-0.5 M -22.5,-0.5 L -10.5,-12.5 M -22.5,-0.5 L -10.5,11.5 M 23,-0.5 L 11,-12.5 M 11.5,11.5 L 23,-0.5" />
        </g>
    </g>
</svg>
